<?xml version="1.0" encoding="UTF-8" standalone="no"?>
<svg
   width="549.50354"
   height="104.525"
   viewBox="0 0 549.50354 104.525"
   fill="none"
   version="1.1"
   id="svg11"
   sodipodi:docname="Group 4.svg"
   inkscape:export-filename="logoLongWeb.svg"
   inkscape:export-xdpi="93.81559"
   inkscape:export-ydpi="93.81559"
   xmlns:inkscape="http://www.inkscape.org/namespaces/inkscape"
   xmlns:sodipodi="http://sodipodi.sourceforge.net/DTD/sodipodi-0.dtd"
   xmlns="http://www.w3.org/2000/svg"
   xmlns:svg="http://www.w3.org/2000/svg">
  <sodipodi:namedview
     id="namedview11"
     pagecolor="#505050"
     bordercolor="#ffffff"
     borderopacity="0"
     inkscape:showpageshadow="0"
     inkscape:pageopacity="0"
     inkscape:pagecheckerboard="1"
     inkscape:deskcolor="#505050" />
  <mask
     id="path-1-outside-1_147_13"
     maskUnits="userSpaceOnUse"
     x="13"
     y="29"
     width="550"
     height="77"
     fill="#000000">
    <rect
       fill="#ffffff"
       x="13"
       y="29"
       width="550"
       height="77"
       id="rect1" />
    <path
       d="M 38.0625,75.7812 V 100 H 17.3105 V 33.3496 h 28.4668 c 7.0964,0 12.4838,0.8138 16.1622,2.4414 3.7109,1.6276 6.6406,4.1179 8.789,7.4707 C 72.9095,46.6146 74,50.3743 74,54.541 c 0,6.3477 -2.2135,11.4746 -6.6406,15.3809 -4.4271,3.9062 -10.3353,5.8593 -17.7246,5.8593 z m -0.293,-14.3066 h 6.836 c 6.0221,0 9.0332,-2.2135 9.0332,-6.6406 0,-4.1667 -2.7832,-6.25 -8.3496,-6.25 H 37.7695 Z M 100.172,33.3496 V 100 H 80.9824 V 33.3496 Z M 160.523,100 h -18.554 c -0.456,-2.1159 -0.684,-4.4271 -0.684,-6.9336 -3.515,5.306 -8.838,7.9586 -15.967,7.9586 -5.859,0 -10.254,-1.497 -13.183,-4.4918 -2.897,-2.9948 -4.346,-6.429 -4.346,-10.3027 0,-5.2409 2.376,-9.4727 7.129,-12.6953 4.785,-3.2553 13.249,-5.2084 25.391,-5.8594 v -1.1231 c 0,-2.181 -0.505,-3.6295 -1.514,-4.3457 -0.977,-0.7161 -2.425,-1.0742 -4.346,-1.0742 -4.492,0 -6.998,1.8067 -7.519,5.4199 l -17.774,-1.6601 c 2.539,-10.3841 11.182,-15.5762 25.928,-15.5762 4.004,0 7.682,0.4069 11.035,1.2207 3.353,0.7813 6.006,2.0182 7.959,3.7109 1.953,1.6928 3.255,3.4831 3.906,5.3711 0.684,1.8881 1.026,5.5176 1.026,10.8887 V 90.332 c 0,3.7761 0.504,6.9987 1.513,9.668 z M 140.309,76.7578 c -8.301,0.8789 -12.452,3.5319 -12.452,7.959 0,2.9948 1.644,4.4922 4.932,4.4922 2.083,0 3.857,-0.6185 5.322,-1.8555 1.465,-1.237 2.198,-3.9713 2.198,-8.2031 z M 217.652,100 H 198.17 V 68.75 c 0,-2.5716 -0.407,-4.2155 -1.221,-4.9316 -0.781,-0.7162 -1.774,-1.0743 -2.978,-1.0743 -3.548,0 -5.323,2.474 -5.323,7.4219 V 100 H 169.166 V 50.3418 h 18.066 v 7.0312 c 2.67,-5.371 7.439,-8.0566 14.307,-8.0566 3.613,0 6.657,0.6999 9.131,2.0996 2.506,1.3672 4.297,3.1576 5.371,5.3711 1.074,2.181 1.611,5.9896 1.611,11.4258 z m 40.967,-49.6582 v 12.6465 h -9.912 v 18.3105 c 0,2.5065 0.472,4.0039 1.416,4.4922 0.944,0.4557 1.921,0.6836 2.93,0.6836 1.562,0 3.418,-0.2767 5.566,-0.8301 v 13.8672 c -3.841,0.7483 -7.617,1.1233 -11.328,1.1233 -5.99,0 -10.4,-1.286 -13.232,-3.8577 -2.8,-2.5716 -4.2,-6.6731 -4.2,-12.3046 l 0.049,-5.8106 V 62.9883 h -7.422 V 50.3418 h 7.422 l 0.293,-16.1621 18.506,-0.293 v 16.4551 z m 39.356,31.8359 18.164,1.2207 c -1.075,4.8828 -3.825,9.0495 -8.252,12.5 -4.395,3.418 -10.352,5.1266 -17.871,5.1266 -8.366,0 -15.039,-2.4085 -20.02,-7.2262 -4.98,-4.8502 -7.471,-10.8561 -7.471,-18.0176 0,-7.4218 2.458,-13.6881 7.373,-18.7988 4.916,-5.1107 11.475,-7.666 19.678,-7.666 7.943,0 14.356,2.4089 19.238,7.2266 4.916,4.8177 7.374,11.3769 7.374,19.6777 0,0.6836 -0.017,1.6276 -0.049,2.832 h -33.252 c 0.065,3.125 0.618,5.4525 1.66,6.9825 1.042,1.4974 3.027,2.246 5.957,2.246 4.232,0 6.722,-2.0345 7.471,-6.1035 z m -1.27,-12.8906 c -0.032,-3.3529 -0.716,-5.5989 -2.051,-6.7383 -1.302,-1.1718 -2.929,-1.7578 -4.883,-1.7578 -4.622,0 -6.933,2.832 -6.933,8.4961 z M 342.506,100 H 323.854 V 50.3418 h 16.21 v 10.2539 c 1.856,-7.4544 6.169,-11.1816 12.94,-11.1816 0.684,0 1.628,0.0651 2.832,0.1953 v 17.334 c -1.367,-0.3256 -2.588,-0.4883 -3.662,-0.4883 -6.445,0 -9.668,3.597 -9.668,10.791 z M 446.217,33.3496 428.541,100 H 411.354 L 402.027,63.2324 393.238,100 h -17.92 L 357.594,33.3496 h 19.238 l 9.326,38.4277 9.082,-38.4277 h 16.114 l 9.863,38.4277 9.326,-38.4277 z m 35.742,48.8281 18.164,1.2207 c -1.074,4.8828 -3.825,9.0495 -8.252,12.5 -4.394,3.418 -10.351,5.1266 -17.871,5.1266 -8.366,0 -15.039,-2.4085 -20.02,-7.2262 -4.98,-4.8502 -7.47,-10.8561 -7.47,-18.0176 0,-7.4218 2.457,-13.6881 7.373,-18.7988 4.915,-5.1107 11.474,-7.666 19.678,-7.666 7.942,0 14.355,2.4089 19.238,7.2266 4.915,4.8177 7.373,11.3769 7.373,19.6777 0,0.6836 -0.016,1.6276 -0.049,2.832 h -33.252 c 0.065,3.125 0.619,5.4525 1.66,6.9825 1.042,1.4974 3.028,2.246 5.957,2.246 4.232,0 6.722,-2.0345 7.471,-6.1035 z m -1.27,-12.8906 c -0.032,-3.3529 -0.716,-5.5989 -2.05,-6.7383 -1.302,-1.1718 -2.93,-1.7578 -4.883,-1.7578 -4.623,0 -6.934,2.832 -6.934,8.4961 z M 518.922,100 H 507.936 V 33.3496 h 19.189 V 56.25 c 2.669,-4.6224 6.917,-6.9336 12.744,-6.9336 4.102,0 7.585,1.0742 10.449,3.2227 2.865,2.1484 4.997,5.2246 6.397,9.2285 1.4,3.9713 2.099,8.1543 2.099,12.5488 0,8.0078 -1.79,14.4694 -5.371,19.3848 -3.58,4.8828 -8.919,7.3238 -16.015,7.3238 -6.999,0 -12.321,-2.6201 -15.967,-7.8609 -1.042,1.9531 -1.888,4.2317 -2.539,6.8359 z m 8.203,-18.5059 c 0,4.8829 1.888,7.3243 5.664,7.3243 2.051,0 3.613,-0.8789 4.688,-2.6368 1.106,-1.7903 1.66,-5.4524 1.66,-10.9863 0,-6.0221 -0.619,-9.7982 -1.856,-11.3281 -1.237,-1.5625 -2.767,-2.3438 -4.59,-2.3438 -1.432,0 -2.718,0.5534 -3.857,1.6602 -1.139,1.1068 -1.709,2.7181 -1.709,4.834 z"
       id="path1" />
  </mask>
  <path
     d="M 24.752,75.2812 V 99.5 H 3.9999999 V 32.8496 H 32.4668 c 7.0964,0 12.4838,0.8138 16.1622,2.4414 3.7109,1.6276 6.6406,4.1179 8.789,7.4707 2.181,3.3529 3.2715,7.1126 3.2715,11.2793 0,6.3477 -2.2135,11.4746 -6.6406,15.3809 -4.4271,3.9062 -10.3353,5.8593 -17.7246,5.8593 z M 24.459,60.9746 h 6.836 c 6.0221,0 9.0332,-2.2135 9.0332,-6.6406 0,-4.1667 -2.7832,-6.25 -8.3496,-6.25 H 24.459 Z M 86.8615,32.8496 V 99.5 H 67.6719 V 32.8496 Z M 147.2125,99.5 h -18.554 c -0.456,-2.1159 -0.684,-4.4271 -0.684,-6.9336 -3.515,5.306 -8.838,7.9586 -15.967,7.9586 -5.859,0 -10.254,-1.497 -13.183,-4.4918 -2.897,-2.9948 -4.346,-6.429 -4.346,-10.3027 0,-5.2409 2.376,-9.4727 7.129,-12.6953 4.785,-3.2553 13.249,-5.2084 25.391,-5.8594 v -1.1231 c 0,-2.181 -0.505,-3.6295 -1.514,-4.3457 -0.977,-0.7161 -2.425,-1.0742 -4.346,-1.0742 -4.492,0 -6.998,1.8067 -7.519,5.4199 l -17.774,-1.6601 c 2.539,-10.3841 11.182,-15.5762 25.928,-15.5762 4.004,0 7.682,0.4069 11.035,1.2207 3.353,0.7813 6.006,2.0182 7.959,3.7109 1.953,1.6928 3.255,3.4831 3.906,5.3711 0.684,1.8881 1.026,5.5176 1.026,10.8887 V 89.832 c 0,3.7761 0.504,6.9987 1.513,9.668 z m -20.214,-23.2422 c -8.301,0.8789 -12.452,3.5319 -12.452,7.959 0,2.9948 1.644,4.4922 4.932,4.4922 2.083,0 3.857,-0.6185 5.322,-1.8555 1.465,-1.237 2.198,-3.9713 2.198,-8.2031 z M 204.3415,99.5 h -19.482 V 68.25 c 0,-2.5716 -0.407,-4.2155 -1.221,-4.9316 -0.781,-0.7162 -1.774,-1.0743 -2.978,-1.0743 -3.548,0 -5.323,2.474 -5.323,7.4219 V 99.5 h -19.482 V 49.8418 h 18.066 v 7.0312 c 2.67,-5.371 7.439,-8.0566 14.307,-8.0566 3.613,0 6.657,0.6999 9.131,2.0996 2.506,1.3672 4.297,3.1576 5.371,5.3711 1.074,2.181 1.611,5.9896 1.611,11.4258 z m 40.967,-49.6582 v 12.6465 h -9.912 v 18.3105 c 0,2.5065 0.472,4.0039 1.416,4.4922 0.944,0.4557 1.921,0.6836 2.93,0.6836 1.562,0 3.418,-0.2767 5.566,-0.8301 v 13.8672 c -3.841,0.7483 -7.617,1.1233 -11.328,1.1233 -5.99,0 -10.4,-1.286 -13.232,-3.8577 -2.8,-2.5716 -4.2,-6.6731 -4.2,-12.3046 l 0.049,-5.8106 V 62.4883 h -7.422 V 49.8418 h 7.422 l 0.293,-16.1621 18.506,-0.293 v 16.4551 z m 39.356,31.8359 18.164,1.2207 c -1.075,4.8828 -3.825,9.0495 -8.252,12.5 -4.395,3.418 -10.352,5.1266 -17.871,5.1266 -8.366,0 -15.039,-2.4085 -20.02,-7.2262 -4.98,-4.8502 -7.471,-10.8561 -7.471,-18.0176 0,-7.4218 2.458,-13.6881 7.373,-18.7988 4.916,-5.1107 11.475,-7.666 19.678,-7.666 7.943,0 14.356,2.4089 19.238,7.2266 4.916,4.8177 7.374,11.3769 7.374,19.6777 0,0.6836 -0.017,1.6276 -0.049,2.832 h -33.252 c 0.065,3.125 0.618,5.4525 1.66,6.9825 1.042,1.4974 3.027,2.246 5.957,2.246 4.232,0 6.722,-2.0345 7.471,-6.1035 z m -1.27,-12.8906 c -0.032,-3.3529 -0.716,-5.5989 -2.051,-6.7383 -1.302,-1.1718 -2.929,-1.7578 -4.883,-1.7578 -4.622,0 -6.933,2.832 -6.933,8.4961 z M 329.1955,99.5 h -18.652 V 49.8418 h 16.21 v 10.2539 c 1.856,-7.4544 6.169,-11.1816 12.94,-11.1816 0.684,0 1.628,0.0651 2.832,0.1953 v 17.334 c -1.367,-0.3256 -2.588,-0.4883 -3.662,-0.4883 -6.445,0 -9.668,3.597 -9.668,10.791 z M 432.9065,32.8496 415.2305,99.5 h -17.187 l -9.327,-36.7676 -8.789,36.7676 h -17.92 l -17.724,-66.6504 h 19.238 l 9.326,38.4277 9.082,-38.4277 h 16.114 l 9.863,38.4277 9.326,-38.4277 z m 35.742,48.8281 18.164,1.2207 c -1.074,4.8828 -3.825,9.0495 -8.252,12.5 -4.394,3.418 -10.351,5.1266 -17.871,5.1266 -8.366,0 -15.039,-2.4085 -20.02,-7.2262 -4.98,-4.8502 -7.47,-10.8561 -7.47,-18.0176 0,-7.4218 2.457,-13.6881 7.373,-18.7988 4.915,-5.1107 11.474,-7.666 19.678,-7.666 7.942,0 14.355,2.4089 19.238,7.2266 4.915,4.8177 7.373,11.3769 7.373,19.6777 0,0.6836 -0.016,1.6276 -0.049,2.832 h -33.252 c 0.065,3.125 0.619,5.4525 1.66,6.9825 1.042,1.4974 3.028,2.246 5.957,2.246 4.232,0 6.722,-2.0345 7.471,-6.1035 z m -1.27,-12.8906 c -0.032,-3.3529 -0.716,-5.5989 -2.05,-6.7383 -1.302,-1.1718 -2.93,-1.7578 -4.883,-1.7578 -4.623,0 -6.934,2.832 -6.934,8.4961 z M 505.6115,99.5 h -10.986 V 32.8496 h 19.189 V 55.75 c 2.669,-4.6224 6.917,-6.9336 12.744,-6.9336 4.102,0 7.585,1.0742 10.449,3.2227 2.865,2.1484 4.997,5.2246 6.397,9.2285 1.4,3.9713 2.099,8.1543 2.099,12.5488 0,8.0078 -1.79,14.4694 -5.371,19.3848 -3.58,4.8828 -8.919,7.3238 -16.015,7.3238 -6.999,0 -12.321,-2.6201 -15.967,-7.8609 -1.042,1.9531 -1.888,4.2317 -2.539,6.8359 z m 8.203,-18.5059 c 0,4.8829 1.888,7.3243 5.664,7.3243 2.051,0 3.613,-0.8789 4.688,-2.6368 1.106,-1.7903 1.66,-5.4524 1.66,-10.9863 0,-6.0221 -0.619,-9.7982 -1.856,-11.3281 -1.237,-1.5625 -2.767,-2.3438 -4.59,-2.3438 -1.432,0 -2.718,0.5534 -3.857,1.6602 -1.139,1.1068 -1.709,2.7181 -1.709,4.834 z"
     fill="url(#paint0_linear_147_13)"
     id="path2"
     style="fill:url(#paint0_linear_147_13)" />
  <path
     d="m 38.0625,75.7812 v -4 h -4 v 4 z m 0,24.2188 v 4 h 4 v -4 z m -20.752,0 h -4 v 4 h 4 z m 0,-66.6504 v -4 h -4 v 4 z m 44.629,2.4414 -1.6186,3.6579 0.0119,0.0053 z m 8.789,7.4707 -3.3679,2.1581 0.0074,0.0115 0.0075,0.0115 z m -32.959,18.2129 h -4 v 4 h 4 z m 0,-12.8906 v -4 h -4 v 4 z m -3.707,27.1972 V 100 h 8 V 75.7812 Z m 4,20.2188 h -20.752 v 8 h 20.752 z m -16.752,4 V 33.3496 h -8 V 100 Z m -4,-62.6504 h 28.4668 v -8 H 17.3105 Z m 28.4668,0 c 6.9008,0 11.6256,0.8082 14.5436,2.0993 L 63.558,32.1331 C 59.1192,30.169 53.0693,29.3496 45.7773,29.3496 Z m 14.5555,2.1046 c 3.0018,1.3165 5.313,3.2895 7.0278,5.9656 l 6.7358,-4.3162 C 71.5143,37.074 67.9662,34.0665 63.5461,32.1279 Z m 7.0427,5.9886 C 69.1161,48.1186 70,51.1146 70,54.541 h 8 C 78,49.6341 76.703,45.1105 74.0815,41.0806 Z M 70,54.541 c 0,5.2973 -1.791,9.2967 -5.2871,12.3815 l 5.293,5.9987 C 75.3639,68.1936 78,61.939 78,54.541 Z m -5.2871,12.3815 c -3.5259,3.1111 -8.4093,4.8587 -15.0781,4.8587 v 8 c 8.1098,0 15.0428,-2.1586 20.3711,-6.86 z M 49.6348,71.7812 H 38.0625 v 8 H 49.6348 Z M 37.7695,65.4746 h 6.836 v -8 h -6.836 z m 6.836,0 c 3.3834,0 6.646,-0.6008 9.1441,-2.4373 2.7279,-2.0054 3.8891,-4.9834 3.8891,-8.2033 h -8 c 0,1.2071 -0.3444,1.5494 -0.6276,1.7576 -0.5129,0.3771 -1.7669,0.883 -4.4056,0.883 z M 57.6387,54.834 c 0,-3.0623 -1.084,-5.9387 -3.6904,-7.8898 -2.3887,-1.788 -5.4926,-2.3602 -8.6592,-2.3602 v 8 c 2.3998,0 3.4707,0.4694 3.8652,0.7647 0.1767,0.1323 0.4844,0.3809 0.4844,1.4853 z M 45.2891,44.584 h -7.5196 v 8 h 7.5196 z m -11.5196,4 v 12.8906 h 8 V 48.584 Z M 100.172,33.3496 h 4 v -4 h -4 z m 0,66.6504 v 4 h 4 v -4 z m -19.1896,0 h -4 v 4 h 4 z m 0,-66.6504 v -4 h -4 v 4 z m 15.1895,0 V 100 h 8.0001 V 33.3496 Z M 100.172,96 H 80.9824 v 8 h 19.1896 z m -15.1896,4 V 33.3496 h -8 V 100 Z m -4,-62.6504 h 19.1896 v -8 H 80.9824 Z M 160.523,100 v 4 h 5.789 l -2.047,-5.4145 z m -18.554,0 -3.911,0.842 0.681,3.158 h 3.23 z m -0.684,-6.9336 h 4 v -13.279 l -7.334,11.0697 z m -29.15,3.4668 -2.875,2.7812 0.008,0.008 0.007,0.008 z m 2.783,-22.998 2.245,3.3106 0.005,-0.0034 z m 25.391,-5.8594 0.214,3.9942 3.786,-0.203 v -3.7912 z m -1.514,-5.4688 -2.366,3.2257 0.026,0.0184 0.025,0.018 z m -11.865,4.3457 -0.372,3.9827 3.788,0.3538 0.543,-3.7658 z m -17.774,-1.6601 -3.885,-0.9501 -1.101,4.5017 4.614,0.431 z m 36.963,-14.3555 -0.943,3.8871 0.018,0.0044 0.017,0.0042 z m 11.865,9.082 -3.781,1.304 0.01,0.029 0.01,0.0288 z m -17.675,17.1387 h 4 v -4.4459 l -4.422,0.4681 z m -2.198,10.5957 -2.58,-3.0561 z M 160.523,96 h -18.554 v 8 h 18.554 z m -14.644,3.1578 c -0.388,-1.7997 -0.594,-3.8247 -0.594,-6.0914 h -8 c 0,2.7463 0.25,5.3438 0.773,7.7756 z m -7.928,-8.3007 c -2.676,4.0387 -6.656,6.1683 -12.633,6.1683 v 7.9996 c 8.282,0 14.946,-3.176 19.302,-9.7492 z m -12.633,6.1683 c -5.22,0 -8.405,-1.3283 -10.324,-3.2894 l -5.719,5.5944 c 3.941,4.0286 9.545,5.6946 16.043,5.6946 z M 115.01,93.752 c -2.236,-2.3109 -3.221,-4.769 -3.221,-7.5215 h -8 c 0,4.9949 1.912,9.4052 5.471,13.0839 z m -3.221,-7.5215 c 0,-3.7719 1.595,-6.8225 5.374,-9.3847 l -4.49,-6.6213 c -5.727,3.8832 -8.884,9.2961 -8.884,16.006 z m 5.379,-9.3881 c 3.811,-2.5924 11.3,-4.526 23.355,-5.1724 l -0.429,-7.9885 c -12.229,0.6557 -21.666,2.6284 -27.426,6.5464 z m 27.141,-9.1666 v -1.1231 h -8 v 1.1231 z m 0,-1.1231 c 0,-2.5134 -0.537,-5.7184 -3.199,-7.6077 l -4.63,6.5241 c -0.321,-0.2278 -0.372,-0.4524 -0.327,-0.3228 0.057,0.1639 0.156,0.5907 0.156,1.4064 z m -3.149,-7.5713 c -1.959,-1.437 -4.402,-1.8486 -6.711,-1.8486 v 8 c 0.724,0 1.232,0.0688 1.567,0.1517 0.332,0.0819 0.432,0.1616 0.413,0.1482 z m -6.711,-1.8486 c -2.72,0 -5.407,0.5385 -7.588,2.1101 -2.293,1.6526 -3.506,4.0691 -3.89,6.7392 l 7.918,1.1413 c 0.136,-0.9432 0.436,-1.2367 0.65,-1.3907 0.326,-0.2351 1.139,-0.5999 2.91,-0.5999 z m -7.147,5.4373 -17.774,-1.6602 -0.744,7.9653 17.774,1.6602 z m -14.26,3.2725 c 1.033,-4.2248 3.213,-7.1927 6.56,-9.2033 3.476,-2.088 8.52,-3.3229 15.482,-3.3229 v -8 c -7.784,0 -14.434,1.3611 -19.601,4.4652 -5.296,3.1814 -8.706,8.0016 -10.212,14.1609 z m 22.042,-12.5262 c 3.736,0 7.092,0.3799 10.092,1.1078 l 1.887,-7.7742 c -3.707,-0.8996 -7.707,-1.3336 -11.979,-1.3336 z m 10.127,1.1164 c 2.922,0.6807 4.921,1.6887 6.247,2.838 l 5.24,-6.0455 c -2.58,-2.2362 -5.887,-3.7021 -9.671,-4.5838 z m 6.247,2.838 c 1.575,1.3643 2.381,2.5975 2.745,3.6523 l 7.563,-2.6079 c -0.939,-2.7213 -2.736,-5.0688 -5.068,-7.0899 z m 2.765,3.7101 c 0.412,1.1379 0.787,4.0903 0.787,9.5269 h 8 c 0,-5.3056 -0.309,-9.6123 -1.265,-12.2504 z m 0.787,9.5269 V 90.332 h 8 V 70.5078 Z m 0,19.8242 c 0,4.1119 0.547,7.8413 1.772,11.082 l 7.483,-2.8285 C 163.472,96.4882 163.01,93.7722 163.01,90.332 Z M 139.887,72.78 c -4.394,0.4653 -8.229,1.4397 -11.071,3.2565 -3.072,1.9633 -4.959,4.9293 -4.959,8.6803 h 8 c 0,-0.676 0.189,-1.2501 1.268,-1.9398 1.308,-0.8363 3.698,-1.6278 7.605,-2.0414 z m -16.03,11.9368 c 0,2.2151 0.626,4.5827 2.54,6.3262 1.843,1.6792 4.219,2.166 6.392,2.166 v -8 c -1.115,0 -1.205,-0.2619 -1.005,-0.0802 0.101,0.0923 0.139,0.1817 0.138,0.1787 -0.009,-0.0259 -0.065,-0.1975 -0.065,-0.5907 z m 8.932,8.4922 c 2.94,0 5.652,-0.8984 7.903,-2.7994 l -5.161,-6.1122 c -0.679,0.573 -1.515,0.9116 -2.742,0.9116 z m 7.903,-2.7994 c 1.589,-1.3417 2.449,-3.2 2.931,-4.9997 0.489,-1.8269 0.686,-3.9485 0.686,-6.2595 h -8 c 0,1.9207 -0.17,3.2822 -0.414,4.1897 -0.25,0.9347 -0.488,1.0621 -0.364,0.9573 z m 3.617,-11.2592 v -2.3926 h -8 v 2.3926 z M 217.652,100 v 4 h 4 v -4 z m -19.482,0 h -4 v 4 h 4 z m -1.221,-36.1816 -2.703,2.9486 0.03,0.0274 0.031,0.0268 z M 188.648,100 v 4 h 4 v -4 z m -19.482,0 h -4 v 4 h 4 z m 0,-49.6582 v -4 h -4 v 4 z m 18.066,0 h 4 v -4 h -4 z m 0,7.0312 h -4 l 7.582,1.7802 z m 23.438,-5.957 -1.97,3.4814 0.027,0.0153 0.028,0.0149 z m 5.371,5.3711 -3.599,1.7464 0.005,0.0105 0.006,0.0105 z M 217.652,96 H 198.17 v 8 h 19.482 z m -15.482,4 V 68.75 h -8 V 100 Z m 0,-31.25 c 0,-1.461 -0.112,-2.8689 -0.422,-4.1227 -0.298,-1.2007 -0.882,-2.6902 -2.156,-3.8118 l -5.285,6.0057 c -0.461,-0.4054 -0.435,-0.7149 -0.325,-0.2717 0.096,0.3901 0.188,1.0899 0.188,2.2005 z m -2.518,-7.8803 c -1.62,-1.4853 -3.623,-2.1256 -5.681,-2.1256 v 8 c 0.204,0 0.286,0.0298 0.291,0.0314 0.003,0.0013 -0.002,-3e-4 -0.01,-0.0055 -0.009,-0.0052 -0.011,-0.0079 -0.006,-0.003 z m -5.681,-2.1256 c -2.819,0 -5.473,1.0561 -7.243,3.5245 -1.594,2.2228 -2.08,5.0658 -2.08,7.8974 h 8 c 0,-2.1163 0.401,-2.9842 0.582,-3.2354 0.057,-0.0807 0.081,-0.0874 0.098,-0.0953 0.039,-0.0179 0.218,-0.0912 0.643,-0.0912 z M 184.648,70.166 V 100 h 8 V 70.166 Z m 4,25.834 h -19.482 v 8 h 19.482 z m -15.482,4 V 50.3418 h -8 V 100 Z m -4,-45.6582 h 18.066 v -8 h -18.066 z m 14.066,-4 v 7.0312 h 8 v -7.0312 z m 7.582,8.8114 c 1.014,-2.0396 2.341,-3.4255 3.96,-4.3373 1.651,-0.9297 3.846,-1.4995 6.765,-1.4995 v -8 c -3.949,0 -7.573,0.773 -10.691,2.5288 -3.149,1.7737 -5.542,4.4162 -7.198,7.7477 z m 10.725,-5.8368 c 3.107,0 5.43,0.6015 7.161,1.581 l 3.94,-6.9628 c -3.217,-1.8199 -6.981,-2.6182 -11.101,-2.6182 z m 7.216,1.6112 c 1.896,1.0345 3.033,2.2569 3.687,3.6059 l 7.198,-3.4928 c -1.494,-3.0781 -3.938,-5.4364 -7.055,-7.1363 z m 3.698,3.6269 c 0.63,1.2788 1.199,4.2573 1.199,9.6584 h 8 c 0,-5.4714 -0.504,-10.11 -2.023,-13.1932 z m 1.199,9.6584 V 100 h 8 V 68.2129 Z m 44.967,-17.8711 h 4 v -4 h -4 z m 0,12.6465 v 4 h 4 v -4 z m -9.912,0 v -4 h -4 v 4 z m 1.416,22.8027 -1.838,3.5529 0.049,0.0253 0.05,0.024 z m 8.496,-0.1465 h 4 v -5.1608 l -4.998,1.2873 z m 0,13.8672 0.765,3.9263 3.235,-0.631 v -3.2953 z m -24.56,-2.7344 -2.706,2.9458 0.008,0.0078 0.009,0.0077 z m -4.2,-12.3046 -3.999,-0.0337 -0.001,0.0168 v 0.0169 z m 0.049,-5.8106 4,0.0336 v -0.0168 -0.0168 z m 0,-15.6738 h 4 v -4 h -4 z m -7.422,0 h -4 v 4 h 4 z m 0,-12.6465 v -4 h -4 v 4 z m 7.422,0 v 4 h 3.928 l 0.072,-3.9275 z m 0.293,-16.1621 -0.063,-3.9995 -3.866,0.0612 -0.07,3.8658 z m 18.506,-0.293 h 4 v -4.0638 l -4.063,0.0643 z m 0,16.4551 h -4 v 4 h 4 z m 5.912,0 v 12.6465 h 8 V 50.3418 Z m 4,8.6465 h -9.912 v 8 h 9.912 z m -13.912,4 v 18.3105 h 8 V 62.9883 Z m 0,18.3105 c 0,1.4487 0.13,2.9068 0.539,4.2055 0.404,1.2819 1.252,2.9148 3.039,3.8396 l 3.676,-7.1058 c 0.844,0.4365 0.983,1.0766 0.915,0.8611 -0.025,-0.0789 -0.071,-0.2604 -0.108,-0.578 -0.037,-0.3131 -0.061,-0.7164 -0.061,-1.2224 z m 3.677,8.0944 c 1.465,0.7071 3.034,1.0814 4.669,1.0814 v -8 c -0.384,0 -0.768,-0.0814 -1.191,-0.2858 z m 4.669,1.0814 c 2.007,0 4.214,-0.3512 6.564,-0.9565 l -1.996,-7.7471 c -1.946,0.5014 -3.45,0.7036 -4.568,0.7036 z m 1.566,-4.8301 v 13.8672 h 8 V 85.6445 Z m 3.235,9.9411 c -3.603,0.7022 -7.122,1.0492 -10.563,1.0492 v 8.0002 c 3.981,0 8.014,-0.402 12.093,-1.197 z m -10.563,1.0492 c -5.534,0 -8.767,-1.2058 -10.543,-2.8188 l -5.378,5.9226 c 3.887,3.5304 9.476,4.8964 15.921,4.8964 z m -10.526,-2.8032 c -1.646,-1.5119 -2.906,-4.3046 -2.906,-9.3589 h -8 c 0,6.2087 1.54,11.619 5.494,15.2504 z m -2.906,-9.3253 0.049,-5.8106 -8,-0.0672 -0.048,5.8105 z m 0.049,-5.8442 V 62.9883 h -8 v 15.6738 z m -4,-19.6738 h -7.422 v 8 h 7.422 z m -3.422,4 V 50.3418 h -8 v 12.6465 z m -4,-8.6465 h 7.422 v -8 h -7.422 z m 11.422,-3.9275 0.293,-16.1621 -7.999,-0.145 -0.293,16.1621 z m -3.644,-12.2351 18.506,-0.293 -0.126,-7.999 -18.506,0.293 z m 14.443,-4.2925 v 16.4551 h 8 V 33.8867 Z m 4,20.4551 h 9.912 v -8 h -9.912 z m 49.268,27.8359 0.268,-3.991 -3.557,-0.239 -0.645,3.5062 z m 18.164,1.2207 3.906,0.8595 0.999,-4.5388 -4.637,-0.3117 z m -8.252,12.5 2.455,3.1574 0.004,-0.0025 z m -37.891,-2.0996 -2.791,2.8657 0.01,0.0093 z m -0.098,-36.8164 -2.883,-2.7728 z m 38.916,-0.4394 -2.809,2.8473 0.01,0.0093 z m 7.325,22.5097 v 4 h 3.893 l 0.105,-3.8919 z m -33.252,0 v -4 h -4.084 l 0.085,4.0833 z m 1.66,6.9825 -3.307,2.2511 0.012,0.0166 0.011,0.0165 z m 12.158,-16.7481 v 4 h 4.039 l -0.039,-4.0388 z m -2.051,-6.7383 -2.676,2.9732 0.039,0.0351 0.04,0.034 z m -11.816,6.7383 h -4 v 4 h 4 z m 14.868,16.8816 18.164,1.2207 0.537,-7.982 -18.164,-1.2207 z m 14.526,-3.6297 c -0.849,3.8603 -3.017,7.2524 -6.804,10.2045 l 4.918,6.3098 c 5.066,-3.9488 8.4,-8.8901 9.699,-14.7954 z m -6.801,10.202 c -3.482,2.7081 -8.476,4.2844 -15.415,4.2844 v 7.9996 c 8.099,0 15.019,-1.841 20.326,-5.9692 z m -15.415,4.2844 c -7.557,0 -13.154,-2.1502 -17.239,-6.1016 l -5.562,5.75 c 5.876,5.6842 13.626,8.3512 22.801,8.3512 z M 272.787,90.9332 C 268.605,86.861 266.525,81.9 266.525,75.7812 h -8 c 0,8.2042 2.901,15.2549 8.68,20.8833 z m -6.262,-15.152 c 0,-6.4414 2.094,-11.6981 6.256,-16.026 l -5.766,-5.5456 c -5.668,5.8935 -8.49,13.1693 -8.49,21.5716 z m 6.256,-16.026 c 4.042,-4.202 9.494,-6.4388 16.795,-6.4388 v -8 c -9.105,0 -16.771,2.8739 -22.561,8.8932 z m 16.795,-6.4388 c 7.071,0 12.413,2.1118 16.429,6.0739 l 5.619,-5.6947 c -5.75,-5.6733 -13.233,-8.3792 -22.048,-8.3792 z m 16.439,6.0832 c 3.993,3.9141 6.173,9.3577 6.173,16.8211 h 8 c 0,-9.1382 -2.736,-16.813 -8.574,-22.5344 z m 6.173,16.8211 c 0,0.6304 -0.016,1.5329 -0.048,2.724 l 7.997,0.2161 c 0.033,-1.2178 0.051,-2.2033 0.051,-2.9401 z m 3.951,-1.168 h -33.252 v 8 h 33.252 z m -37.251,4.0833 c 0.071,3.424 0.668,6.6761 2.352,9.1503 l 6.613,-4.5023 c -0.398,-0.5857 -0.908,-1.9886 -0.967,-4.8146 z m 2.375,9.1834 c 2.156,3.0992 5.812,3.9618 9.241,3.9618 v -8 c -1.153,0 -1.87,-0.1512 -2.275,-0.3043 -0.193,-0.0725 -0.295,-0.1375 -0.34,-0.1715 -0.042,-0.0309 -0.054,-0.0481 -0.059,-0.0545 z m 9.241,3.9618 c 2.744,0 5.414,-0.6652 7.572,-2.4282 2.169,-1.7721 3.337,-4.2573 3.833,-6.9514 l -7.868,-1.4477 c -0.253,1.3749 -0.705,1.9414 -1.026,2.2038 -0.333,0.2715 -1.024,0.6235 -2.511,0.6235 z m 10.201,-23.0329 c -0.035,-3.5547 -0.708,-7.3982 -3.454,-9.7417 l -5.194,6.0845 c -0.079,-0.0673 0.092,0.0282 0.284,0.6614 0.195,0.6388 0.35,1.63 0.364,3.0734 z m -3.375,-9.6726 c -2.123,-1.9105 -4.74,-2.7847 -7.559,-2.7847 v 8 c 1.088,0 1.726,0.2977 2.207,0.731 z m -7.559,-2.7847 c -3.166,0 -6.189,1.0097 -8.299,3.595 -1.983,2.4297 -2.634,5.6275 -2.634,8.9011 h 8 c 0,-2.3905 0.504,-3.4407 0.832,-3.843 0.202,-0.2467 0.646,-0.6531 2.101,-0.6531 z m -6.933,16.4961 h 13.867 v -8 H 282.838 Z M 342.506,100 v 4 h 4 v -4 z m -18.652,0 h -4 v 4 h 4 z m 0,-49.6582 v -4 h -4 v 4 z m 16.21,0 h 4 v -4 h -4 z m 0,10.2539 h -4 l 7.882,0.9662 z m 15.772,-10.9863 h 4 v -3.5909 l -3.57,-0.386 z m 0,17.334 -0.927,3.8912 4.927,1.173 V 66.9434 Z M 342.506,96 h -18.652 v 8 h 18.652 z m -14.652,4 V 50.3418 h -8 V 100 Z m -4,-45.6582 h 16.21 v -8 h -16.21 z m 12.21,-4 v 10.2539 h 8 V 50.3418 Z m 7.882,11.2201 c 0.796,-3.1998 2.012,-5.1609 3.36,-6.3259 1.299,-1.122 3.083,-1.8219 5.698,-1.8219 v -8 c -4.156,0 -7.914,1.1636 -10.928,3.7689 -2.965,2.5621 -4.834,6.1919 -5.893,10.4465 z m 9.058,-8.1478 c 0.471,0 1.25,0.0475 2.402,0.1721 l 0.86,-7.9537 c -1.257,-0.1358 -2.366,-0.2184 -3.262,-0.2184 z m -1.168,-3.8047 v 17.334 h 8 v -17.334 z m 4.926,13.4427 c -1.583,-0.377 -3.123,-0.597 -4.588,-0.597 v 8 c 0.683,0 1.584,0.1054 2.735,0.3795 z m -4.588,-0.597 c -3.96,0 -7.629,1.1251 -10.23,4.0286 -2.527,2.8198 -3.438,6.6506 -3.438,10.7624 h 8 c 0,-3.0823 0.7,-4.6469 1.396,-5.4241 0.621,-0.6936 1.786,-1.3669 4.272,-1.3669 z m -13.668,14.791 V 100 h 8 V 77.2461 Z m 107.711,-43.8965 3.866,1.0254 1.333,-5.0254 h -5.199 z M 428.541,100 v 4 h 3.077 l 0.789,-2.975 z m -17.187,0 -3.878,0.983 0.765,3.017 h 3.113 z m -9.327,-36.7676 3.878,-0.9834 -7.768,0.0534 z M 393.238,100 v 4 h 3.157 l 0.734,-3.07 z m -17.92,0 -3.865,1.028 0.79,2.972 h 3.075 z M 357.594,33.3496 v -4 h -5.203 l 1.337,5.028 z m 19.238,0 3.887,-0.9434 -0.742,-3.0566 h -3.145 z m 9.326,38.4277 -3.887,0.9434 7.78,-0.0233 z m 9.082,-38.4277 v -4 h -3.165 l -0.728,3.08 z m 16.114,0 3.874,-0.9944 -0.772,-3.0056 h -3.102 z m 9.863,38.4277 -3.875,0.9945 7.762,-0.0511 z m 9.326,-38.4277 v -4 h -3.145 l -0.742,3.0566 z m 11.807,-1.0254 -17.675,66.6504 7.732,2.0504 17.676,-66.65 z M 428.541,96 h -17.187 v 8 h 17.187 z m -13.31,3.0165 -9.326,-36.7675 -7.755,1.9669 9.326,36.7671 z m -17.094,-36.7141 -8.789,36.7676 7.781,1.86 8.789,-36.7676 z M 393.238,96 h -17.92 v 8 h 17.92 z m -14.054,2.972 -17.725,-66.6504 -7.731,2.056 17.725,66.6504 z m -21.59,-61.6224 h 19.238 v -8 h -19.238 z m 15.351,-3.0566 9.326,38.4277 7.774,-1.8867 -9.326,-38.4278 z m 17.106,38.4044 9.082,-38.4278 -7.786,-1.84 -9.082,38.4277 z m 5.189,-35.3478 h 16.114 v -8 H 395.24 Z m 12.239,-3.0055 9.863,38.4277 7.749,-1.9889 -9.863,-38.4277 z m 17.625,38.3766 9.326,-38.4277 -7.774,-1.8868 -9.326,38.4278 z m 5.439,-35.3711 h 15.674 v -8 h -15.674 z m 51.416,44.8281 0.268,-3.991 -3.557,-0.239 -0.645,3.5062 z m 18.164,1.2207 3.907,0.8595 0.998,-4.5388 -4.637,-0.3117 z m -8.252,12.5 2.456,3.1574 0.003,-0.0025 z m -37.891,-2.0996 -2.79,2.8657 0.009,0.0093 z M 453.883,56.9824 451,54.2096 Z m 38.916,-0.4394 -2.81,2.8473 0.01,0.0093 z m 7.324,22.5097 v 4 h 3.893 l 0.106,-3.8919 z m -33.252,0 v -4 h -4.084 l 0.085,4.0833 z m 1.66,6.9825 -3.306,2.2511 0.011,0.0166 0.012,0.0165 z m 12.158,-16.7481 v 4 h 4.039 l -0.039,-4.0388 z m -2.05,-6.7383 -2.676,2.9732 0.039,0.0351 0.04,0.034 z m -11.817,6.7383 h -4 v 4 h 4 z m 14.869,16.8816 18.164,1.2207 0.536,-7.982 -18.164,-1.2207 z m 14.525,-3.6297 c -0.849,3.8603 -3.016,7.2524 -6.804,10.2045 l 4.918,6.3098 c 5.067,-3.9488 8.4,-8.8901 9.7,-14.7954 z m -6.801,10.202 c -3.482,2.7081 -8.475,4.2844 -15.415,4.2844 v 7.9996 c 8.099,0 15.02,-1.841 20.327,-5.9692 z M 474,97.0254 c -7.557,0 -13.154,-2.1502 -17.238,-6.1016 l -5.563,5.75 c 5.876,5.6842 13.626,8.3512 22.801,8.3512 z M 456.771,90.9332 C 452.59,86.861 450.51,81.9 450.51,75.7812 h -8 c 0,8.2042 2.9,15.2549 8.68,20.8833 z m -6.261,-15.152 c 0,-6.4414 2.093,-11.6981 6.256,-16.026 L 451,54.2096 c -5.668,5.8935 -8.49,13.1693 -8.49,21.5716 z m 6.256,-16.026 c 4.041,-4.202 9.493,-6.4388 16.795,-6.4388 v -8 c -9.106,0 -16.772,2.8739 -22.561,8.8932 z m 16.795,-6.4388 c 7.07,0 12.413,2.1118 16.428,6.0739 l 5.619,-5.6947 c -5.75,-5.6733 -13.233,-8.3792 -22.047,-8.3792 z m 16.438,6.0832 c 3.993,3.9141 6.173,9.3577 6.173,16.8211 h 8 c 0,-9.1382 -2.736,-16.813 -8.573,-22.5344 z m 6.173,16.8211 c 0,0.6304 -0.015,1.5329 -0.047,2.724 l 7.997,0.2161 c 0.033,-1.2178 0.05,-2.2033 0.05,-2.9401 z m 3.951,-1.168 h -33.252 v 8 h 33.252 z m -37.251,4.0833 c 0.071,3.424 0.668,6.6761 2.353,9.1503 l 6.613,-4.5023 c -0.399,-0.5857 -0.909,-1.9886 -0.968,-4.8146 z m 2.376,9.1834 c 2.156,3.0992 5.811,3.9618 9.24,3.9618 v -8 c -1.153,0 -1.869,-0.1512 -2.275,-0.3043 -0.192,-0.0725 -0.294,-0.1375 -0.34,-0.1715 -0.042,-0.0309 -0.054,-0.0481 -0.058,-0.0545 z m 9.24,3.9618 c 2.745,0 5.415,-0.6652 7.573,-2.4282 2.169,-1.7721 3.336,-4.2573 3.832,-6.9514 l -7.868,-1.4477 c -0.253,1.3749 -0.705,1.9414 -1.026,2.2038 -0.332,0.2715 -1.023,0.6235 -2.511,0.6235 z m 10.201,-23.0329 c -0.034,-3.5547 -0.708,-7.3982 -3.453,-9.7417 l -5.194,6.0845 c -0.079,-0.0673 0.091,0.0282 0.284,0.6614 0.194,0.6388 0.35,1.63 0.364,3.0734 z m -3.374,-9.6726 c -2.123,-1.9105 -4.74,-2.7847 -7.559,-2.7847 v 8 c 1.087,0 1.725,0.2977 2.207,0.731 z m -7.559,-2.7847 c -3.167,0 -6.189,1.0097 -8.299,3.595 -1.983,2.4297 -2.635,5.6275 -2.635,8.9011 h 8 c 0,-2.3905 0.504,-3.4407 0.833,-3.843 0.201,-0.2467 0.645,-0.6531 2.101,-0.6531 z m -6.934,16.4961 h 13.867 v -8 H 466.822 Z M 518.922,100 v 4 h 3.123 l 0.757,-3.03 z m -10.986,0 h -4 v 4 h 4 z m 0,-66.6504 v -4 h -4 v 4 z m 19.189,0 h 4 v -4 h -4 z m 0,22.9004 h -4 v 14.9256 l 7.464,-12.9253 z m 23.193,-3.7109 -2.4,3.2 z m 6.397,9.2285 -3.776,1.32 0.003,0.0096 z m -3.272,31.9336 3.226,2.3654 0.007,-0.0102 z m -31.982,-0.5371 3.284,-2.2843 -3.736,-5.3692 -3.077,5.7711 z m 16.016,-6.9825 -3.403,-2.1032 -0.005,0.0087 -0.006,0.0087 z m -0.196,-22.3144 -3.136,2.4828 0.013,0.0161 0.013,0.016 z m -8.447,-0.6836 -2.787,-2.8691 z M 518.922,96 h -10.986 v 8 h 10.986 z m -6.986,4 V 33.3496 h -8 V 100 Z m -4,-62.6504 h 19.189 v -8 h -19.189 z m 15.189,-4 V 56.25 h 8 V 33.3496 Z m 7.464,24.9007 c 1.878,-3.2531 4.723,-4.9339 9.28,-4.9339 v -8 c -7.097,0 -12.748,2.9416 -16.208,8.9333 z m 9.28,-4.9339 c 3.368,0 5.975,0.8671 8.049,2.4227 l 4.8,-6.4 c -3.655,-2.7414 -8.013,-4.0227 -12.849,-4.0227 z m 8.049,2.4227 c 2.12,1.5898 3.834,3.9529 5.021,7.3485 l 7.552,-2.6401 c -1.613,-4.6122 -4.163,-8.4014 -7.773,-11.1084 z m 5.024,7.3581 c 1.243,3.5258 1.872,7.2576 1.872,11.2192 h 8 c 0,-4.8275 -0.77,-9.4615 -2.327,-13.8785 z m 1.872,11.2192 c 0,7.4279 -1.658,12.9862 -4.604,17.0295 l 6.466,4.7105 c 4.216,-5.7874 6.138,-13.1523 6.138,-21.74 z m -4.596,17.0193 c -2.691,3.6697 -6.719,5.6897 -12.79,5.6897 v 7.9996 c 8.121,0 14.771,-2.862 19.241,-8.9584 z m -12.79,5.6897 c -5.837,0 -9.866,-2.0953 -12.683,-6.1456 l -6.568,4.5685 c 4.474,6.4317 11.09,9.5767 19.251,9.5767 z m -19.496,-5.7437 c -1.225,2.2951 -2.176,4.8914 -2.891,7.7482 l 7.761,1.9401 c 0.588,-2.3514 1.329,-4.3124 2.188,-5.9236 z m 5.193,-9.7876 c 0,2.8458 0.531,5.7151 2.252,7.9402 1.871,2.4202 4.593,3.3841 7.412,3.3841 v -8 c -0.519,0 -0.786,-0.0841 -0.895,-0.1311 -0.085,-0.0367 -0.131,-0.0723 -0.189,-0.147 -0.167,-0.2163 -0.58,-1.0091 -0.58,-3.0462 z m 9.664,11.3243 c 3.452,0 6.304,-1.6107 8.101,-4.551 l -6.827,-4.1716 c -0.351,0.5754 -0.624,0.7226 -1.274,0.7226 z m 8.09,-4.5335 c 0.976,-1.5792 1.492,-3.5742 1.798,-5.595 0.317,-2.0997 0.46,-4.6151 0.46,-7.4946 h -8 c 0,2.6544 -0.134,4.737 -0.37,6.2993 -0.248,1.6414 -0.562,2.3726 -0.693,2.5838 z m 2.258,-13.0896 c 0,-3.1198 -0.159,-5.8083 -0.517,-7.9952 -0.334,-2.0383 -0.927,-4.2383 -2.228,-5.8478 l -6.221,5.0298 c -0.065,-0.0796 0.27,0.3734 0.554,2.1111 0.261,1.5892 0.412,3.7998 0.412,6.7021 z m -2.72,-13.8109 c -1.914,-2.4186 -4.556,-3.861 -7.726,-3.861 v 8 c 0.476,0 0.895,0.1201 1.454,0.8266 z m -7.726,-3.861 c -2.59,0 -4.847,1.0453 -6.644,2.7911 l 5.574,5.7382 c 0.482,-0.4678 0.796,-0.5293 1.07,-0.5293 z m -6.644,2.7911 c -2.147,2.0851 -2.922,4.8789 -2.922,7.7031 h 8 c 0,-1.4076 0.364,-1.8365 0.496,-1.9649 z m -2.922,7.7031 v 13.4765 h 8 V 68.0176 Z"
     fill="#1b2f28"
     mask="url(#path-1-outside-1_147_13)"
     id="path3"
     transform="translate(-13.3105,-0.5)" />
  <path
     d="m 32.6895,20.5 c 0,-4.7739 -1.8964,-9.3523 -5.2721,-12.72792 C 24.0418,4.39642 19.4634,2.5 14.6895,2.5 H 5.6894999 v 6 c 0,4.7739 1.8964,9.3523 5.2721001,12.7279 3.3756,3.3757 7.954,5.2721 12.7279,5.2721 h 9 m 0,0 c 0,-4.7739 1.8964,-9.3523 5.2721,-12.7279 C 41.3372,10.3964 45.9156,8.5 50.6895,8.5 h 9 v 3 c 0,4.7739 -1.8964,9.3523 -5.2721,12.7279 C 51.0418,27.6036 46.4634,29.5 41.6895,29.5 h -9 m 0,19.5 V 20.5 Z"
     fill="url(#paint1_linear_147_13)"
     id="path4"
     style="fill:url(#paint1_linear_147_13)" />
  <path
     d="m 32.6895,29.5 h 9 c 4.7739,0 9.3523,-1.8964 12.7279,-5.2721 3.3757,-3.3756 5.2721,-7.954 5.2721,-12.7279 v -3 h -9 c -4.7739,0 -9.3523,1.8964 -12.7279,5.2721 -3.3757,3.3756 -5.2721,7.954 -5.2721,12.7279 h -9 C 18.9156,26.5 14.3372,24.6036 10.9616,21.2279 7.5858999,17.8523 5.6894999,13.2739 5.6894999,8.5 v -6 H 14.6895 c 4.7739,0 9.3523,1.89642 12.7279,5.27208 3.3757,3.37562 5.2721,7.95402 5.2721,12.72792 V 49"
     stroke="#1b2f28"
     stroke-width="5"
     stroke-linecap="round"
     stroke-linejoin="round"
     id="path5" />
  <path
     d="m 32.6895,60.5 v 16"
     stroke="#1b2f28"
     stroke-width="5"
     id="path6" />
  <defs
     id="defs11">
    <linearGradient
       id="paint0_linear_147_13"
       x1="-100.275"
       y1="-10.885"
       x2="-52.608601"
       y2="277.15302"
       gradientUnits="userSpaceOnUse"
       gradientTransform="translate(-13.3105,-0.5)">
      <stop
         stop-color="#FBA9CB"
         id="stop6" />
      <stop
         offset="0.0001"
         stop-color="#FC8BBA"
         id="stop7" />
      <stop
         offset="1"
         stop-color="#FFDB84"
         id="stop8" />
    </linearGradient>
    <linearGradient
       id="paint1_linear_147_13"
       x1="9.5500002"
       y1="-6.5324998"
       x2="79.441704"
       y2="76.494797"
       gradientUnits="userSpaceOnUse"
       gradientTransform="translate(-13.3105,-0.5)">
      <stop
         stop-color="#FBA9CB"
         id="stop9" />
      <stop
         offset="0.0001"
         stop-color="#FC8BBA"
         id="stop10" />
      <stop
         offset="1"
         stop-color="#FFDB84"
         id="stop11" />
    </linearGradient>
  </defs>
</svg>
